<svg width="64" height="64" viewBox="0 0 64 64" fill="none" xmlns="http://www.w3.org/2000/svg">
<rect width="64" height="64" fill="#D9D9D9" fill-opacity="0.01"/>
<path d="M41.0176 49.643C40.2976 49.643 39.6376 49.483 39.0376 49.163C38.4776 48.883 37.9376 48.503 37.4176 48.023C36.6976 47.343 35.8976 46.443 35.0176 45.323C34.1376 44.203 33.2176 43.003 32.2576 41.723C31.3376 40.403 30.4576 39.123 29.6176 37.883C28.8176 36.603 28.1376 35.483 27.5776 34.523C27.2976 34.523 26.9776 34.503 26.6176 34.463C26.2576 34.423 25.9176 34.363 25.5976 34.283C24.9976 34.083 24.6976 33.883 24.6976 33.683C24.6976 33.523 24.8176 33.403 25.0576 33.323C25.2976 33.243 25.5576 33.183 25.8376 33.143C27.1576 32.943 28.7576 32.663 30.6376 32.303C32.5176 31.903 34.4376 31.383 36.3976 30.743C38.3976 30.063 40.2576 29.283 41.9776 28.403C43.7376 27.483 45.1576 26.423 46.2376 25.223C47.3176 23.983 47.8576 22.583 47.8576 21.023C47.8576 19.783 47.4976 18.743 46.7776 17.903C46.0576 17.063 45.1176 16.383 43.9576 15.863C42.8376 15.303 41.6176 14.883 40.2976 14.603C38.9776 14.323 37.6976 14.143 36.4576 14.063C35.2576 13.943 34.2376 13.883 33.3976 13.883C31.3176 13.883 29.0376 14.123 26.5576 14.603C24.0776 15.083 21.6376 15.703 19.2376 16.463C16.8376 17.223 14.7176 18.063 12.8776 18.983C12.8376 19.023 12.7576 19.063 12.6376 19.103C12.5576 19.143 12.4776 19.163 12.3976 19.163C12.1576 19.163 12.0376 19.003 12.0376 18.683C12.0376 17.883 12.4776 17.183 13.3576 16.583C14.2376 15.943 15.3776 15.383 16.7776 14.903C18.2176 14.423 19.7576 14.023 21.3976 13.703C23.0376 13.343 24.6376 13.063 26.1976 12.863C27.7976 12.663 29.1976 12.523 30.3976 12.443C31.6376 12.323 32.5176 12.263 33.0376 12.263C34.1576 12.263 35.4576 12.343 36.9376 12.503C38.4176 12.623 39.9176 12.883 41.4376 13.283C42.9976 13.643 44.4376 14.183 45.7576 14.903C47.0776 15.623 48.1376 16.543 48.9376 17.663C49.7776 18.743 50.1976 20.103 50.1976 21.743C50.1976 23.743 49.5976 25.483 48.3976 26.963C47.1976 28.443 45.6376 29.683 43.7176 30.683C41.8376 31.683 39.7976 32.483 37.5976 33.083C35.4376 33.643 33.3976 34.043 31.4776 34.283C31.9176 35.403 32.5176 36.743 33.2776 38.303C34.0776 39.863 34.9576 41.383 35.9176 42.863C36.8776 44.343 37.8376 45.583 38.7976 46.583C39.7976 47.543 40.6776 48.023 41.4376 48.023C42.1176 48.023 42.6376 47.783 42.9976 47.303C43.3976 46.783 43.6776 46.143 43.8376 45.383C43.9976 44.623 44.0976 43.883 44.1376 43.163C44.1776 42.403 44.1976 41.783 44.1976 41.303V40.943C44.1976 40.583 44.2976 40.403 44.4976 40.403C44.8576 40.403 45.1776 40.623 45.4576 41.063C45.7376 41.503 45.9576 41.983 46.1176 42.503C46.2776 43.023 46.3576 43.423 46.3576 43.703C46.4376 44.703 46.2376 45.663 45.7576 46.583C45.2776 47.463 44.6176 48.183 43.7776 48.743C42.9376 49.343 42.0176 49.643 41.0176 49.643ZM17.7376 51.563C16.8576 51.563 16.2376 51.243 15.8776 50.603C15.5176 50.003 15.3376 49.263 15.3376 48.383C15.3376 47.063 15.6376 45.463 16.2376 43.583C16.8376 41.663 17.5976 39.643 18.5176 37.523C19.4776 35.363 20.4976 33.243 21.5776 31.163C22.6576 29.083 23.6776 27.163 24.6376 25.403C25.6376 23.643 26.4576 22.223 27.0976 21.143C27.5776 20.303 28.0776 19.403 28.5976 18.443C29.1176 17.443 29.6776 16.563 30.2776 15.803C30.4776 15.523 30.8176 15.343 31.2976 15.263C31.7776 15.183 32.1576 15.143 32.4376 15.143C32.7576 15.143 33.1176 15.223 33.5176 15.383C33.9176 15.503 34.1176 15.783 34.1176 16.223V16.343C34.1176 16.863 33.8976 17.383 33.4576 17.903C31.6576 20.823 29.8576 23.623 28.0576 26.303C26.2976 28.983 24.6376 31.863 23.0776 34.943C22.7176 35.583 22.2176 36.503 21.5776 37.703C20.9376 38.863 20.2576 40.143 19.5376 41.543C18.8576 42.943 18.2976 44.323 17.8576 45.683C17.4176 47.003 17.2376 48.163 17.3176 49.163C17.3176 49.363 17.3576 49.583 17.4376 49.823C17.5576 50.063 17.7576 50.183 18.0376 50.183C18.2376 50.183 18.3376 50.363 18.3376 50.723C18.3376 50.923 18.2776 51.103 18.1576 51.263C18.0776 51.463 17.9376 51.563 17.7376 51.563Z" fill="black"/>
</svg>
